<svg width="16" height="16" viewBox="0 0 16 16" fill="none" xmlns="http://www.w3.org/2000/svg">
<path d="M9.75921 9.76312C9.94335 9.57898 10.1143 9.36854 10.259 9.13179C10.6404 8.52678 10.8509 7.82969 10.8509 7.11945C10.8509 6.13301 10.4563 5.17287 9.75921 4.47578L6.36585 1.09557C5.66876 0.398484 4.72178 0.00390625 3.73533 0.00390625C1.67038 0.00390625 0 1.67428 0 3.73924C0 4.72568 0.394577 5.67267 1.09166 6.36975L3.89316 9.17125C3.94577 9.22386 4.01154 9.25017 4.09045 9.25017C4.23513 9.25017 4.3535 9.13179 4.3535 8.98712V8.8819C4.3535 8.30318 4.45872 7.71132 4.68232 7.17206C4.72178 7.06684 4.69547 6.96162 4.62971 6.8827L2.60421 4.87036C1.97289 4.23904 1.97289 3.22629 2.60421 2.60812C3.23553 1.98995 4.24828 1.97679 4.86645 2.60812L8.27297 6.01463C8.89114 6.63281 8.89114 7.64555 8.27297 8.27688C7.87839 8.69776 7.87839 9.35539 8.27297 9.77627C8.45711 9.96041 8.69385 10.0656 8.94375 10.0919C9.24626 10.0919 9.54877 9.98671 9.75921 9.76312Z" fill="white"/>
<path d="M14.9023 14.9042C16.3622 13.4443 16.3622 11.09 14.9023 9.63004L12.114 6.82855C12.035 6.74963 11.9167 6.72333 11.8246 6.77594C11.7194 6.81539 11.6536 6.92061 11.6668 7.02583V7.1179C11.6668 7.69662 11.5484 8.27533 11.338 8.82774C11.2985 8.93296 11.3248 9.03818 11.3906 9.11709L13.3898 11.1294C14.0211 11.7608 14.0211 12.7735 13.3898 13.3917C12.7584 14.023 11.7457 14.023 11.1275 13.3917L8.62853 10.8927L8.60222 10.8664L7.73415 9.99832C7.11598 9.38015 7.11598 8.3674 7.73415 7.73607C8.12873 7.31519 8.12873 6.65756 7.73415 6.23668C7.55002 6.05254 7.31327 5.94732 7.05022 5.92102C6.74771 5.90787 6.4452 6.01309 6.23476 6.23668C5.9191 6.53919 5.6692 6.90746 5.48506 7.30204C5.45876 7.35465 5.43245 7.42041 5.4193 7.47302C5.393 7.52563 5.37984 7.59139 5.35354 7.64401C5.32723 7.69662 5.31408 7.76238 5.30093 7.81499L5.26147 7.97282C5.23517 8.07804 5.20886 8.18326 5.19571 8.30163C5.18256 8.43316 5.1694 8.56469 5.15625 8.69621V8.88035V8.8935L5.1694 9.05133C5.1694 9.10394 5.18256 9.1697 5.18256 9.23547V9.32754L5.20886 9.51167L5.22201 9.59059L5.24832 9.74842V9.77472C5.4193 10.4324 5.74812 11.0242 6.23476 11.5109L9.62812 14.9042C11.0881 16.3642 13.4424 16.3642 14.9023 14.9042Z" fill="#F6F7F7"/>
<path d="M9.75921 6.23815C9.57508 6.05401 9.36464 5.88303 9.12789 5.73835C8.52287 5.35693 7.82578 5.14648 7.11555 5.14648C6.1291 5.14648 5.16896 5.54106 4.47188 6.23815L1.09166 9.63151C0.394577 10.3286 0 11.2756 0 12.262C0 14.327 1.67038 15.9974 3.73533 15.9974C4.72178 15.9974 5.66876 15.6028 6.36585 14.9057L9.16735 12.1042C9.21996 12.0516 9.24626 11.9858 9.24626 11.9069C9.24626 11.7622 9.12789 11.6439 8.98321 11.6439H8.87799C8.29928 11.6439 7.70741 11.5386 7.16816 11.315C7.06294 11.2756 6.95771 11.3019 6.8788 11.3677L4.86645 13.4063C4.23513 14.0376 3.22238 14.0376 2.60421 13.4063C1.97289 12.775 1.97289 11.7622 2.60421 11.1441L6.01073 7.73754C6.6289 7.11937 7.64165 7.11937 8.27297 7.73754C8.69386 8.13212 9.35148 8.13212 9.77237 7.73754C9.9565 7.55341 10.0617 7.31666 10.088 7.06676C10.088 6.7511 9.98281 6.46174 9.75921 6.23815Z" fill="#F6F7F7"/>
<path d="M14.9008 1.09495C13.4409 -0.364984 11.0866 -0.364984 9.62663 1.09495L6.82513 3.89645C6.74621 3.97537 6.71991 4.09374 6.77252 4.18581C6.81198 4.29103 6.9172 4.35679 7.02242 4.34364H7.11448C7.6932 4.34364 8.27191 4.46201 8.82432 4.67245C8.92954 4.71191 9.03476 4.68561 9.11368 4.61984L11.126 2.62065C11.7573 1.98933 12.7701 1.98933 13.3883 2.62065C14.0064 3.25197 14.0196 4.26472 13.3883 4.88289L10.8893 7.38188L10.863 7.40819L9.9949 8.27626C9.37673 8.89443 8.36398 8.89443 7.73266 8.27626C7.31177 7.88168 6.65414 7.88168 6.23326 8.27626C6.04913 8.44724 5.94391 8.69714 5.9176 8.94704C5.90445 9.24955 6.00967 9.55206 6.23326 9.7625C6.53577 10.0782 6.90404 10.3281 7.29862 10.5122C7.35123 10.5385 7.41699 10.5648 7.4696 10.578C7.52221 10.5911 7.58798 10.6174 7.64059 10.6437C7.6932 10.67 7.75896 10.6832 7.81157 10.6963L7.9694 10.7358C8.07462 10.7621 8.17984 10.7884 8.29822 10.8016C8.42974 10.8147 8.56127 10.8279 8.69279 10.841H8.87693H8.89008L9.04791 10.8279C9.10053 10.8279 9.16629 10.8147 9.23205 10.8147H9.32412L9.50826 10.7884L9.58717 10.7752L9.745 10.7489H9.77131C10.4289 10.578 11.0208 10.2491 11.5074 9.7625L14.9008 6.36913C16.3608 4.92235 16.3608 2.55489 14.9008 1.09495Z" fill="#F6F7F7"/>
</svg>
