<?xml version="1.0" encoding="utf-8"?>
<!-- Generator: Adobe Illustrator 24.1.3, SVG Export Plug-In . SVG Version: 6.00 Build 0)  -->
<svg version="1.1" id="Layer_1" xmlns="http://www.w3.org/2000/svg" xmlns:xlink="http://www.w3.org/1999/xlink" x="0px" y="0px"
	 viewBox="0 0 300 300" style="enable-background:new 0 0 300 300;" xml:space="preserve">
<style type="text/css">
	.st0{fill:#16162F;}
	.st1{clip-path:url(#SVGID_2_);}
	.st2{opacity:0.2;fill:#4FD0A4;}
	.st3{fill:#FFFFFF;}
	.st4{fill:#020059;}
	.st5{fill:#F92B4E;}
</style>
<g>
	<path class="st0" d="M0,200h300v100H0V200z"/>
	<g>
		<defs>
			<path id="SVGID_1_" d="M0,200h300v100H0V200z"/>
		</defs>
		<clipPath id="SVGID_2_">
			<use xlink:href="#SVGID_1_"  style="overflow:visible;"/>
		</clipPath>
		<g class="st1">
			<path class="st2" d="M73.1,212.4l-29.8-17.2c-7.3-4.2-16.4-4.2-23.7,0l-29.8,17.2c-7.3,4.2-11.9,12.1-11.9,20.6v34.4
				c0,8.5,4.5,16.3,11.9,20.6l9.9,5.7l16.2,9.3v-16.4V263l-16.2,9.3v5l-2.8-1.6c-2.9-1.7-4.7-4.8-4.7-8.2v-34.4
				c0-3.4,1.8-6.5,4.7-8.2l29.8-17.2c1.4-0.8,3.1-1.3,4.7-1.3c1.7,0,3.3,0.4,4.7,1.3l29.9,17c2.9,1.7,4.7,4.8,4.7,8.2v34.4
				c0,3.4-1.8,6.5-4.7,8.2l-2.8,1.6v-46L47,240.5v45.9V303l16.2-9.3l9.9-5.7c7.3-4.2,11.9-12.1,11.9-20.6V233
				C85,224.5,80.5,216.6,73.1,212.4z"/>
			<path class="st2" d="M23.6,258.6v32.1v15.9c5.3,1.9,11.1,1.9,16.4,0v-15.9V245l-24,13.6H23.6z"/>
		</g>
	</g>
	<path class="st3" d="M49.6,248.1c0,2-0.3,3.9-1,5.6c-0.7,1.7-1.7,3.2-2.9,4.5c-1.3,1.3-2.8,2.3-4.5,3c-1.8,0.7-3.7,1.1-5.9,1.1
		s-4.1-0.4-5.9-1.1s-3.3-1.7-4.6-3c-1.3-1.3-2.2-2.8-2.9-4.5c-0.7-1.7-1-3.6-1-5.6s0.3-3.9,1-5.6c0.7-1.7,1.7-3.2,2.9-4.5
		c1.3-1.3,2.8-2.3,4.6-3s3.7-1.1,5.9-1.1s4.1,0.4,5.9,1.1c1.8,0.7,3.3,1.7,4.5,3c1.3,1.3,2.2,2.8,2.9,4.5
		C49.3,244.3,49.6,246.2,49.6,248.1z M43,248.1c0-1.4-0.2-2.6-0.5-3.7c-0.4-1.1-0.9-2-1.5-2.8c-0.7-0.8-1.5-1.3-2.4-1.7
		s-2.1-0.6-3.3-0.6s-2.3,0.2-3.3,0.6c-1,0.4-1.8,1-2.5,1.7c-0.7,0.8-1.2,1.7-1.5,2.8c-0.4,1.1-0.5,2.3-0.5,3.7s0.2,2.6,0.5,3.7
		c0.4,1.1,0.9,2,1.5,2.8c0.7,0.8,1.5,1.3,2.5,1.7c1,0.4,2.1,0.6,3.3,0.6s2.3-0.2,3.3-0.6s1.8-1,2.4-1.7c0.7-0.8,1.2-1.7,1.5-2.8
		C42.9,250.8,43,249.5,43,248.1z M52.7,262v-19.7h3.6c0.4,0,0.7,0.1,0.9,0.2c0.3,0.2,0.4,0.4,0.5,0.7l0.3,1.1c0.4-0.4,0.8-0.7,1.2-1
		s0.8-0.6,1.3-0.8s1-0.4,1.5-0.5s1.1-0.2,1.8-0.2c1.1,0,2,0.2,2.9,0.6c0.8,0.4,1.5,0.9,2.1,1.6c0.6,0.7,1,1.4,1.3,2.4
		c0.3,0.9,0.4,1.9,0.4,3V262h-5.9v-12.5c0-1-0.2-1.7-0.7-2.2c-0.4-0.5-1.1-0.8-2-0.8c-0.6,0-1.3,0.1-1.8,0.4
		c-0.6,0.3-1.1,0.7-1.6,1.1v14H52.7z M83.2,242c1.3,0,2.5,0.2,3.6,0.6c1.1,0.4,2,1,2.8,1.8s1.4,1.7,1.8,2.9c0.4,1.1,0.7,2.4,0.7,3.8
		c0,0.4,0,0.8-0.1,1.1c0,0.3-0.1,0.5-0.2,0.7s-0.2,0.3-0.4,0.3c-0.2,0.1-0.4,0.1-0.6,0.1H79.3c0.2,1.6,0.7,2.8,1.5,3.6
		c0.8,0.7,1.9,1.1,3.1,1.1c0.7,0,1.3-0.1,1.8-0.2c0.5-0.2,0.9-0.3,1.3-0.6c0.4-0.2,0.7-0.4,1.1-0.6c0.3-0.2,0.7-0.2,1-0.2
		c0.5,0,0.8,0.2,1.1,0.5l1.7,2.1c-0.6,0.7-1.3,1.3-2,1.7c-0.7,0.4-1.4,0.8-2.2,1c-0.7,0.2-1.5,0.4-2.2,0.5s-1.4,0.2-2.1,0.2
		c-1.4,0-2.7-0.2-3.9-0.7c-1.2-0.5-2.3-1.1-3.2-2c-0.9-0.9-1.6-2-2.1-3.3c-0.5-1.3-0.8-2.9-0.8-4.6c0-1.3,0.2-2.6,0.7-3.7
		c0.5-1.2,1.1-2.2,1.9-3.1c0.8-0.9,1.9-1.6,3.1-2.1C80.3,242.3,81.6,242,83.2,242z M83.3,246.1c-1.1,0-2,0.3-2.6,1
		c-0.6,0.6-1.1,1.6-1.3,2.8h7.4c0-0.5-0.1-0.9-0.2-1.4c-0.1-0.4-0.3-0.8-0.6-1.2c-0.3-0.4-0.6-0.6-1.1-0.9
		C84.4,246.2,83.9,246.1,83.3,246.1z M114,254.8c0.2,0,0.3,0,0.5,0.1s0.3,0.1,0.4,0.3l2.5,2.7c-1.1,1.5-2.5,2.6-4.2,3.3
		c-1.7,0.7-3.7,1.1-5.9,1.1c-2.1,0-4-0.4-5.7-1.1s-3.1-1.7-4.2-3c-1.2-1.3-2-2.8-2.7-4.5c-0.6-1.7-0.9-3.6-0.9-5.6
		c0-2.1,0.4-4,1.1-5.7s1.7-3.2,3-4.5s2.8-2.2,4.6-2.9c1.8-0.7,3.7-1,5.9-1c1,0,2,0.1,2.9,0.3s1.8,0.4,2.6,0.8
		c0.8,0.3,1.5,0.7,2.2,1.2c0.7,0.4,1.3,0.9,1.8,1.5l-2.2,2.9c-0.1,0.2-0.3,0.3-0.5,0.5c-0.2,0.1-0.5,0.2-0.8,0.2
		c-0.2,0-0.4-0.1-0.6-0.2c-0.2-0.1-0.4-0.2-0.6-0.4s-0.5-0.3-0.8-0.5s-0.6-0.3-1-0.5s-0.8-0.3-1.3-0.4c-0.5-0.1-1.1-0.2-1.7-0.2
		c-1.2,0-2.2,0.2-3.2,0.6c-1,0.4-1.8,1-2.5,1.8s-1.2,1.7-1.6,2.8s-0.6,2.3-0.6,3.7s0.2,2.7,0.6,3.8s0.9,2,1.6,2.8
		c0.7,0.7,1.5,1.3,2.3,1.7c0.9,0.4,1.8,0.6,2.8,0.6c0.6,0,1.1,0,1.6-0.1s0.9-0.2,1.3-0.3c0.4-0.1,0.8-0.3,1.2-0.5
		c0.4-0.2,0.8-0.5,1.1-0.8c0.2-0.1,0.3-0.2,0.5-0.3C113.6,254.9,113.8,254.8,114,254.8z M129.1,242c1.5,0,2.9,0.2,4.1,0.7
		c1.2,0.5,2.3,1.1,3.2,2s1.6,1.9,2.1,3.2c0.5,1.2,0.7,2.6,0.7,4.2c0,1.6-0.2,3-0.7,4.3c-0.5,1.3-1.2,2.3-2.1,3.2
		c-0.9,0.9-1.9,1.6-3.2,2c-1.2,0.5-2.6,0.7-4.1,0.7s-2.9-0.2-4.1-0.7s-2.3-1.2-3.2-2c-0.9-0.9-1.6-2-2.1-3.2
		c-0.5-1.3-0.7-2.7-0.7-4.3s0.2-3,0.7-4.2c0.5-1.3,1.2-2.3,2.1-3.2s2-1.5,3.2-2C126.3,242.2,127.6,242,129.1,242z M129.1,257.9
		c1.4,0,2.4-0.5,3-1.4c0.6-1,1-2.4,1-4.4s-0.3-3.4-1-4.4c-0.6-0.9-1.6-1.4-3-1.4c-1.4,0-2.4,0.5-3.1,1.4c-0.6,1-1,2.4-1,4.4
		s0.3,3.4,1,4.4C126.7,257.5,127.7,257.9,129.1,257.9z M142.4,262v-19.7h3.6c0.4,0,0.7,0.1,0.9,0.2c0.3,0.2,0.4,0.4,0.5,0.7l0.3,1.1
		c0.3-0.3,0.7-0.7,1-0.9c0.4-0.3,0.7-0.5,1.1-0.7c0.4-0.2,0.9-0.4,1.3-0.5c0.5-0.1,1-0.2,1.6-0.2c1.2,0,2.2,0.3,2.9,0.9
		c0.8,0.6,1.4,1.4,1.8,2.5c0.3-0.6,0.7-1.1,1.2-1.6c0.5-0.4,1-0.8,1.5-1c0.6-0.3,1.1-0.5,1.7-0.6c0.6-0.1,1.2-0.2,1.8-0.2
		c1.1,0,2.1,0.2,3,0.5s1.6,0.8,2.2,1.5c0.6,0.6,1,1.4,1.3,2.4c0.3,0.9,0.5,2,0.5,3.2V262h-5.9v-12.5c0-2-0.9-3.1-2.6-3.1
		c-0.8,0-1.5,0.3-2,0.8s-0.8,1.3-0.8,2.3V262h-5.9v-12.5c0-1.1-0.2-1.9-0.7-2.4c-0.4-0.5-1.1-0.7-2-0.7c-0.5,0-1,0.1-1.5,0.4
		c-0.5,0.2-0.9,0.6-1.3,1V262H142.4z M175.1,262v-19.7h3.6c0.4,0,0.7,0.1,0.9,0.2c0.3,0.2,0.4,0.4,0.5,0.7l0.3,1.1
		c0.3-0.3,0.7-0.7,1-0.9c0.4-0.3,0.7-0.5,1.1-0.7c0.4-0.2,0.9-0.4,1.3-0.5c0.5-0.1,1-0.2,1.6-0.2c1.2,0,2.2,0.3,2.9,0.9
		c0.8,0.6,1.4,1.4,1.8,2.5c0.3-0.6,0.7-1.1,1.2-1.6c0.5-0.4,1-0.8,1.5-1c0.6-0.3,1.1-0.5,1.7-0.6c0.6-0.1,1.2-0.2,1.8-0.2
		c1.1,0,2.1,0.2,3,0.5s1.6,0.8,2.2,1.5c0.6,0.6,1,1.4,1.3,2.4c0.3,0.9,0.5,2,0.5,3.2V262h-5.9v-12.5c0-2-0.9-3.1-2.6-3.1
		c-0.8,0-1.5,0.3-2,0.8s-0.8,1.3-0.8,2.3V262h-5.9v-12.5c0-1.1-0.2-1.9-0.7-2.4c-0.4-0.5-1.1-0.7-2-0.7c-0.5,0-1,0.1-1.5,0.4
		c-0.5,0.2-0.9,0.6-1.3,1V262H175.1z M216.3,242c1.3,0,2.5,0.2,3.6,0.6c1.1,0.4,2,1,2.8,1.8s1.4,1.7,1.8,2.9
		c0.4,1.1,0.7,2.4,0.7,3.8c0,0.4,0,0.8-0.1,1.1c0,0.3-0.1,0.5-0.2,0.7c-0.1,0.2-0.2,0.3-0.4,0.3c-0.2,0.1-0.4,0.1-0.6,0.1h-11.4
		c0.2,1.6,0.7,2.8,1.5,3.6c0.8,0.7,1.9,1.1,3.1,1.1c0.7,0,1.3-0.1,1.8-0.2c0.5-0.2,0.9-0.3,1.3-0.6c0.4-0.2,0.7-0.4,1.1-0.6
		c0.3-0.2,0.7-0.2,1-0.2c0.5,0,0.8,0.2,1.1,0.5l1.7,2.1c-0.6,0.7-1.3,1.3-2,1.7c-0.7,0.4-1.4,0.8-2.2,1c-0.7,0.2-1.5,0.4-2.2,0.5
		s-1.4,0.2-2.1,0.2c-1.4,0-2.7-0.2-3.9-0.7s-2.3-1.1-3.2-2s-1.6-2-2.1-3.3c-0.5-1.3-0.8-2.9-0.8-4.6c0-1.3,0.2-2.6,0.7-3.7
		c0.5-1.2,1.1-2.2,1.9-3.1c0.8-0.9,1.9-1.6,3.1-2.1C213.4,242.3,214.8,242,216.3,242z M216.4,246.1c-1.1,0-2,0.3-2.6,1
		c-0.6,0.6-1.1,1.6-1.3,2.8h7.4c0-0.5-0.1-0.9-0.2-1.4c-0.1-0.4-0.3-0.8-0.6-1.2s-0.6-0.6-1.1-0.9
		C217.6,246.2,217,246.1,216.4,246.1z M228.5,262v-19.7h3.5c0.3,0,0.5,0,0.7,0.1s0.4,0.1,0.5,0.2c0.1,0.1,0.2,0.2,0.3,0.4
		s0.1,0.4,0.2,0.6l0.3,1.8c0.7-1.1,1.5-2,2.4-2.6s1.9-1,2.9-1c0.9,0,1.6,0.2,2.2,0.6l-0.8,4.3c-0.1,0.3-0.2,0.5-0.3,0.6
		c-0.2,0.1-0.4,0.2-0.6,0.2c-0.2,0-0.5,0-0.8-0.1s-0.7-0.1-1.1-0.1c-1.5,0-2.8,0.8-3.6,2.5V262H228.5z M258.4,247
		c-0.2,0.2-0.3,0.4-0.5,0.5s-0.4,0.2-0.7,0.2c-0.3,0-0.6-0.1-0.8-0.2c-0.2-0.1-0.5-0.3-0.8-0.5s-0.6-0.3-1-0.5
		c-0.4-0.1-0.9-0.2-1.5-0.2c-0.7,0-1.3,0.1-1.9,0.4c-0.5,0.3-0.9,0.6-1.3,1.1c-0.3,0.5-0.6,1.1-0.8,1.8s-0.2,1.5-0.2,2.4
		c0,1.9,0.4,3.3,1.1,4.4c0.7,1,1.7,1.5,3,1.5c0.7,0,1.2-0.1,1.6-0.2c0.4-0.2,0.7-0.4,1-0.6s0.5-0.4,0.8-0.6c0.2-0.2,0.5-0.3,0.9-0.3
		c0.5,0,0.8,0.2,1.1,0.5l1.7,2.1c-0.6,0.7-1.2,1.3-1.9,1.7c-0.7,0.4-1.4,0.8-2.1,1c-0.7,0.2-1.4,0.4-2.1,0.5
		c-0.7,0.1-1.4,0.2-2.1,0.2c-1.2,0-2.4-0.2-3.5-0.7s-2.1-1.1-2.9-2c-0.8-0.9-1.5-1.9-2-3.2c-0.5-1.3-0.7-2.7-0.7-4.3
		c0-1.4,0.2-2.7,0.6-4c0.4-1.2,1.1-2.3,1.9-3.2c0.8-0.9,1.9-1.6,3.1-2.1c1.2-0.5,2.6-0.8,4.3-0.8c1.5,0,2.9,0.2,4.1,0.7
		s2.2,1.2,3.2,2.2L258.4,247z M271.1,242c1.3,0,2.5,0.2,3.6,0.6c1.1,0.4,2,1,2.8,1.8s1.4,1.7,1.8,2.9c0.4,1.1,0.7,2.4,0.7,3.8
		c0,0.4,0,0.8-0.1,1.1c0,0.3-0.1,0.5-0.2,0.7s-0.2,0.3-0.4,0.3c-0.2,0.1-0.4,0.1-0.6,0.1h-11.4c0.2,1.6,0.7,2.8,1.5,3.6
		c0.8,0.7,1.9,1.1,3.1,1.1c0.7,0,1.3-0.1,1.8-0.2c0.5-0.2,0.9-0.3,1.3-0.6c0.4-0.2,0.7-0.4,1.1-0.6c0.3-0.2,0.7-0.2,1-0.2
		c0.5,0,0.8,0.2,1.1,0.5l1.7,2.1c-0.6,0.7-1.3,1.3-2,1.7c-0.7,0.4-1.4,0.8-2.2,1c-0.7,0.2-1.5,0.4-2.2,0.5s-1.4,0.2-2.1,0.2
		c-1.4,0-2.7-0.2-3.9-0.7c-1.2-0.5-2.3-1.1-3.2-2c-0.9-0.9-1.6-2-2.1-3.3c-0.5-1.3-0.8-2.9-0.8-4.6c0-1.3,0.2-2.6,0.7-3.7
		c0.5-1.2,1.1-2.2,1.9-3.1c0.8-0.9,1.9-1.6,3.1-2.1C268.3,242.3,269.6,242,271.1,242z M271.3,246.1c-1.1,0-2,0.3-2.6,1
		c-0.6,0.6-1.1,1.6-1.3,2.8h7.4c0-0.5-0.1-0.9-0.2-1.4c-0.1-0.4-0.3-0.8-0.6-1.2c-0.3-0.4-0.6-0.6-1.1-0.9
		C272.4,246.2,271.9,246.1,271.3,246.1z"/>
</g>
<g>
	<path class="st4" d="M157.1,62.8c-1.1-1.2-2.4-2.2-3.8-3.1c-3.6-2.3-7.9-3.6-12.2-3.6c-6,0-11.8,2.4-16,6.6l-20.6,20.6
		c-4.2,4.2-6.6,10-6.6,16c0,12.5,10.1,22.6,22.6,22.6c6,0,11.8-2.4,16-6.6l17-17c0.3-0.3,0.5-0.7,0.5-1.2c0-0.9-0.7-1.6-1.6-1.6
		h-0.6c-3.5,0-7.1-0.7-10.3-2c-0.6-0.2-1.3-0.1-1.8,0.4l-12.2,12.2c-3.8,3.8-9.9,3.8-13.7,0c-3.8-3.8-3.8-9.9,0-13.7l20.6-20.6
		c3.8-3.8,9.9-3.8,13.7,0c2.5,2.4,6.5,2.4,9.1,0c1.1-1.1,1.8-2.6,1.9-4.1C159.1,65.9,158.4,64.1,157.1,62.8z"/>
	<path class="st5" d="M188.3,31.6c-8.8-8.8-23.2-8.8-32,0l-17,16.9c-0.5,0.5-0.6,1.2-0.3,1.8s0.9,1,1.5,1h0.6c3.5,0,7,0.7,10.3,2
		c0.6,0.2,1.3,0.1,1.8-0.4l12.2-12.2c3.8-3.8,9.9-3.8,13.7,0s3.8,9.9,0,13.7L164,69.7l-0.1,0.1l-5.3,5.3c-3.8,3.8-9.9,3.8-13.7,0
		c-2.5-2.4-6.5-2.4-9.1,0c-1.1,1.1-1.8,2.6-1.9,4.1c-0.1,1.9,0.6,3.7,1.9,5c1.9,1.9,4.1,3.4,6.5,4.5c0.3,0.2,0.7,0.3,1,0.4
		s0.7,0.3,1,0.4s0.7,0.2,1,0.3l1,0.3c0.7,0.2,1.3,0.3,2,0.4c0.8,0.1,1.6,0.2,2.4,0.2h1.1h0.1l1-0.1c0.4,0,0.7-0.1,1.1-0.1h0.6
		l1.1-0.2l0.5-0.1l0.9-0.2h0.2c4-1,7.6-3.1,10.5-5.9l20.6-20.6C197.1,54.8,197.1,40.5,188.3,31.6z"/>
	<path class="st4" d="M157.1,84.2c1.2-1.1,2.2-2.4,3.1-3.8c2.3-3.6,3.6-7.9,3.6-12.2c0-6-2.4-11.8-6.6-16l-20.6-20.6
		c-4.2-4.2-10-6.6-16-6.6C108.1,25,98,35.1,98,47.6c0,6,2.4,11.8,6.6,16l17,17c0.3,0.3,0.7,0.5,1.2,0.5c0.9,0,1.6-0.7,1.6-1.6v-0.6
		c0-3.5,0.7-7.1,2-10.3c0.2-0.6,0.1-1.3-0.4-1.8l-12.2-12.2c-3.8-3.8-3.8-9.9,0-13.7s9.9-3.8,13.7,0l20.6,20.6
		c3.8,3.8,3.8,9.9,0,13.7c-2.4,2.5-2.4,6.5,0,9.1c1.1,1.1,2.6,1.8,4.1,1.9C154,86.2,155.8,85.5,157.1,84.2z"/>
	<path class="st5" d="M188.3,115.4c8.8-8.8,8.8-23.2,0-32l-16.9-17c-0.5-0.5-1.2-0.6-1.8-0.3c-0.6,0.3-1,0.9-1,1.5v0.6
		c0,3.5-0.7,7-2,10.3c-0.2,0.6-0.1,1.3,0.4,1.8l12.2,12.2c3.8,3.8,3.8,9.9,0,13.7c-3.8,3.8-9.9,3.8-13.7,0L150.2,91l-0.1-0.1
		l-5.3-5.3c-3.8-3.8-3.8-9.9,0-13.7c2.4-2.5,2.4-6.5,0-9.1c-1.1-1.1-2.6-1.8-4.1-1.9c-1.9-0.1-3.7,0.6-5,1.9
		c-1.9,1.9-3.4,4.1-4.5,6.5c-0.2,0.3-0.3,0.7-0.4,1c-0.1,0.3-0.3,0.7-0.4,1c-0.1,0.3-0.2,0.7-0.3,1l-0.3,1c-0.2,0.6-0.3,1.3-0.4,2
		c-0.1,0.8-0.2,1.6-0.2,2.4v1.1v0.1l0.1,1c0,0.4,0.1,0.7,0.1,1.1v0.6l0.2,1.1l0.1,0.5l0.2,0.9v0.2c1,4,3.1,7.6,5.9,10.5l20.6,20.6
		C165.1,124.2,179.5,124.2,188.3,115.4z"/>
	<path class="st4" d="M85,146v6.4h-7.6V175h-7.8v-22.6H62V146H85L85,146z"/>
	<path class="st4" d="M99.6,153.2c1.4-0.8,2.8-1.2,4.4-1.2v8.5h-2.4c-1.8,0-3.2,0.3-4.1,1s-1.4,1.9-1.4,3.6v9.8H88v-22.8h8.2v4.3
		C97.1,155.1,98.2,154,99.6,153.2z"/>
	<path class="st4" d="M119.7,153c1.3,0.7,2.2,1.6,2.8,2.8v-3.6h8.5v22.4h-8.5V171c-0.6,1.2-1.5,2.1-2.8,2.8s-2.7,1-4.4,1
		c-1.9,0-3.7-0.5-5.2-1.4c-1.6-0.9-2.8-2.3-3.7-4c-0.9-1.7-1.3-3.8-1.3-6.1s0.4-4.4,1.3-6.1c0.9-1.7,2.1-3.1,3.7-4s3.3-1.4,5.2-1.4
		C117,152,118.5,152.3,119.7,153z M114.9,160.1c-0.8,0.8-1.2,1.9-1.2,3.4s0.4,2.6,1.2,3.4c0.8,0.8,1.9,1.2,3.2,1.2
		c1.3,0,2.3-0.4,3.2-1.2c0.8-0.8,1.3-2,1.3-3.4s-0.4-2.5-1.3-3.4c-0.8-0.8-1.9-1.2-3.2-1.2C116.8,158.9,115.7,159.3,114.9,160.1z"/>
	<path class="st4" d="M157.6,154.6c1.6,1.7,2.4,4.1,2.4,7.1V175h-8.4v-12.2c0-1.3-0.4-2.4-1.1-3.1c-0.7-0.7-1.7-1.1-2.9-1.1
		c-1.3,0-2.3,0.4-3,1.2s-1.1,1.8-1.1,3.2v12H135v-22.8h8.5v3.8c0.7-1.2,1.7-2.2,3-2.9s2.9-1.1,4.6-1.1
		C153.9,152,156.1,152.9,157.6,154.6z"/>
	<path class="st4" d="M180.4,154.2c1.8,1.4,2.9,3.3,3.3,5.7h-7.4c-0.2-0.8-0.6-1.4-1.1-1.8c-0.6-0.4-1.3-0.6-2.1-0.6
		c-0.6,0-1,0.1-1.3,0.4c-0.3,0.3-0.5,0.6-0.5,1.1c0,0.6,0.3,1,1,1.3s1.7,0.6,3.2,0.9c1.7,0.4,3.2,0.8,4.3,1.2s2.1,1.1,3,2.1
		c0.8,1,1.3,2.3,1.3,3.9c0,1.3-0.4,2.5-1.1,3.5c-0.7,1-1.8,1.8-3.1,2.4c-1.4,0.6-3,0.9-4.9,0.9c-3.1,0-5.7-0.7-7.5-2
		c-1.9-1.4-3-3.3-3.4-5.8h7.6c0.1,0.8,0.5,1.4,1.1,1.8c0.6,0.4,1.4,0.6,2.3,0.6c0.6,0,1.1-0.1,1.4-0.4s0.5-0.6,0.5-1
		c0-0.6-0.3-1.1-1-1.4c-0.7-0.3-1.8-0.6-3.3-0.9c-1.7-0.3-3.1-0.7-4.2-1.1c-1.1-0.4-2-1.1-2.9-2c-0.8-0.9-1.2-2.2-1.2-3.8
		c0-2,0.8-3.7,2.4-5c1.6-1.3,3.8-1.9,6.7-1.9C176.2,152,178.6,152.7,180.4,154.2z"/>
	<path class="st5" d="M207,154.4c2.1,1.6,3.4,3.8,4,6.7h-8.9c-0.2-0.8-0.6-1.4-1.1-1.8c-0.5-0.4-1.2-0.6-2-0.6c-1,0-1.9,0.4-2.5,1.2
		s-1,2-1,3.5c0,1.6,0.3,2.8,1,3.6c0.6,0.8,1.5,1.2,2.5,1.2c0.8,0,1.5-0.2,2-0.6c0.5-0.4,0.9-1,1.1-1.8h8.9c-0.5,2.9-1.9,5.1-4,6.7
		c-2.1,1.6-4.7,2.4-7.8,2.4c-2.4,0-4.5-0.5-6.4-1.4c-1.8-0.9-3.3-2.3-4.3-4s-1.5-3.8-1.5-6.1s0.5-4.4,1.5-6.1c1-1.7,2.5-3.1,4.3-4
		c1.9-0.9,4-1.4,6.3-1.4C202.3,152,204.9,152.8,207,154.4z"/>
	<path class="st5" d="M219.9,152l4.9,12.5l4.5-12.5h8.8l-14.4,33H215l5.5-11.6L211,152H219.9L219.9,152z"/>
</g>
</svg>
