<svg width="34" height="33" viewBox="0 0 34 33" fill="none" xmlns="http://www.w3.org/2000/svg">
<path d="M20.2751 12.8273C19.8851 12.4355 19.453 12.0879 18.9864 11.791C17.5096 10.8465 15.7537 10.4343 14.01 10.6227C12.2663 10.8112 10.6395 11.5891 9.39931 12.8273L2.41398 19.8095C1.00127 21.2549 0.215792 23.1978 0.227672 25.2172C0.239551 27.2367 1.04783 29.1702 2.47744 30.5989C3.90705 32.0277 5.84288 32.8366 7.86562 32.8505C9.88836 32.8644 11.8351 32.0821 13.2843 30.6731L19.0518 24.9149C19.1038 24.8634 19.1448 24.8018 19.1725 24.7341C19.2001 24.6663 19.2137 24.5937 19.2126 24.5205C19.2126 24.3763 19.1552 24.2379 19.053 24.1359C18.9508 24.0338 18.8122 23.9765 18.6677 23.9765H18.447C17.2425 23.9793 16.0489 23.7483 14.9325 23.2965C14.8321 23.2544 14.7213 23.2432 14.6145 23.2646C14.5076 23.2859 14.4097 23.3387 14.3332 23.4162L10.1812 27.5615C9.56307 28.179 8.72454 28.526 7.8501 28.5263C6.97565 28.5265 6.13692 28.18 5.51842 27.5628C4.89991 26.9457 4.5523 26.1085 4.55204 25.2355C4.55179 24.3625 4.89891 23.5251 5.51706 22.9076L12.5324 15.9091C12.838 15.6037 13.2009 15.3615 13.6004 15.1962C13.9998 15.0309 14.428 14.9458 14.8604 14.9458C15.2927 14.9458 15.7209 15.0309 16.1203 15.1962C16.5198 15.3615 16.8827 15.6037 17.1883 15.9091C17.6059 16.3019 18.158 16.5207 18.7317 16.5207C19.3055 16.5207 19.8575 16.3019 20.2751 15.9091C20.4781 15.7069 20.6392 15.4668 20.7492 15.2024C20.8591 14.938 20.9157 14.6545 20.9157 14.3682C20.9157 14.0819 20.8591 13.7984 20.7492 13.534C20.6392 13.2696 20.4781 13.0295 20.2751 12.8273Z" fill="#020059"/>
<path d="M30.8728 2.24967C30.1588 1.53646 29.3111 0.970692 28.378 0.584685C27.445 0.198679 26.4449 0 25.4349 0C24.4249 0 23.4248 0.198679 22.4918 0.584685C21.5587 0.970692 20.711 1.53646 19.997 2.24967L14.2349 7.99699C14.1552 8.07353 14.1006 8.17251 14.0786 8.28074C14.0566 8.38897 14.068 8.50134 14.1115 8.60291C14.155 8.70447 14.2284 8.79042 14.322 8.84932C14.4155 8.90823 14.5249 8.93729 14.6354 8.93266H14.837C16.0413 8.9314 17.2343 9.16517 18.3487 9.62082C18.4491 9.66205 18.5595 9.67243 18.6658 9.65062C18.7721 9.62882 18.8695 9.57582 18.9454 9.49842L23.0837 5.37493C23.39 5.06935 23.7535 4.82698 24.1536 4.66167C24.5537 4.49636 24.9824 4.41135 25.4154 4.41147C25.8484 4.4116 26.2771 4.49687 26.6771 4.66241C27.0771 4.82795 27.4405 5.07053 27.7465 5.37629C28.0526 5.68204 28.2954 6.04499 28.4609 6.44442C28.6265 6.84384 28.7117 7.27191 28.7115 7.70419C28.7114 8.13647 28.626 8.56449 28.4602 8.96382C28.2944 9.36314 28.0514 9.72596 27.7452 10.0315L22.5933 15.1696L22.5498 15.2185L20.7489 17.0056C20.1309 17.6218 19.2931 17.9679 18.4196 17.9679C17.5461 17.9679 16.7083 17.6218 16.0902 17.0056C15.6721 16.6139 15.1202 16.3959 14.5469 16.3959C13.9735 16.3959 13.4217 16.6139 13.0035 17.0056C12.7988 17.2079 12.6363 17.4487 12.5254 17.7141C12.4145 17.9796 12.3574 18.2643 12.3574 18.5519C12.3574 18.8395 12.4145 19.1242 12.5254 19.3896C12.6363 19.655 12.7988 19.8958 13.0035 20.0982C13.6381 20.7367 14.3817 21.2571 15.1994 21.635C15.3165 21.6894 15.4309 21.7329 15.5453 21.7818C15.6598 21.8308 15.7824 21.8716 15.8968 21.9151C16.0112 21.9586 16.1338 21.9967 16.2482 22.0294L16.5724 22.1164C16.7931 22.1735 17.0138 22.217 17.2372 22.2551C17.508 22.2954 17.7809 22.3208 18.0545 22.3313H18.4713L18.8037 22.3041C18.9236 22.3041 19.0516 22.2714 19.1933 22.2714H19.3813L19.76 22.217L19.9343 22.1844L20.2531 22.1164H20.3239C21.6744 21.78 22.9074 21.0822 23.8902 20.0982L30.8809 13.1187C31.5961 12.405 32.1632 11.5575 32.5499 10.6246C32.9366 9.69183 33.1353 8.69204 33.1345 7.6825C33.1337 6.67295 32.9336 5.67346 32.5455 4.74123C32.1574 3.809 31.589 2.96233 30.8728 2.24967Z" fill="#F92B4E"/>
<path d="M20.2777 20.0795C20.6702 19.6902 21.0183 19.2588 21.3157 18.793C22.2617 17.3185 22.6746 15.5655 22.4858 13.8246C22.297 12.0837 21.5179 10.4595 20.2777 9.22138L13.2869 2.24735C11.8391 0.836935 9.89315 0.0527254 7.8704 0.0645857C5.84765 0.0764461 3.91101 0.883421 2.47996 2.31072C1.04892 3.73801 0.238698 5.67071 0.224791 7.69017C0.210885 9.70963 0.994415 11.6533 2.40567 13.1001L8.1732 18.8583C8.24925 18.9371 8.34735 18.9912 8.45467 19.0135C8.562 19.0358 8.67356 19.0252 8.77479 18.9832C8.87602 18.9412 8.96219 18.8697 9.02207 18.778C9.08194 18.6863 9.11272 18.5787 9.11039 18.4693V18.249C9.10764 17.0464 9.33896 15.8547 9.79149 14.7402C9.83313 14.6403 9.84396 14.5302 9.82261 14.4241C9.80126 14.318 9.74868 14.2207 9.67162 14.1445L5.51964 10.002C4.9282 9.37906 4.60368 8.55022 4.61518 7.69195C4.62667 6.83369 4.97328 6.01381 5.5812 5.40687C6.18913 4.79993 7.01034 4.45388 7.86999 4.4424C8.72965 4.43092 9.55984 4.75492 10.1838 5.34541L17.1909 12.3494C17.4968 12.6545 17.7394 13.0168 17.905 13.4156C18.0705 13.8144 18.1557 14.2419 18.1557 14.6736C18.1557 15.1053 18.0705 15.5327 17.905 15.9315C17.7394 16.3303 17.4968 16.6927 17.1909 16.9978C16.7987 17.4153 16.5803 17.9662 16.5803 18.5387C16.5803 19.1111 16.7987 19.6621 17.1909 20.0795C17.3934 20.2823 17.6339 20.4431 17.8988 20.5529C18.1636 20.6626 18.4476 20.7191 18.7343 20.7191C19.021 20.7191 19.305 20.6626 19.5698 20.5529C19.8347 20.4431 20.0752 20.2823 20.2777 20.0795Z" fill="#020059"/>
<path d="M30.8731 30.6592C31.5875 29.9464 32.1542 29.1 32.5408 28.1685C32.9274 27.2369 33.1264 26.2385 33.1264 25.2301C33.1264 24.2218 32.9274 23.2233 32.5408 22.2918C32.1542 21.3602 31.5875 20.5139 30.8731 19.801L25.1192 14.0483C25.0427 13.9676 24.9434 13.9123 24.8344 13.8897C24.7255 13.8671 24.6123 13.8783 24.51 13.9219C24.4076 13.9654 24.3211 14.0391 24.262 14.1332C24.2029 14.2273 24.174 14.3372 24.1793 14.4481V14.6494C24.1815 15.8516 23.9483 17.0426 23.4927 18.1555C23.4511 18.2554 23.4403 18.3654 23.4616 18.4716C23.483 18.5777 23.5356 18.675 23.6126 18.7511L27.7428 22.8828C28.0489 23.1885 28.2916 23.5515 28.4572 23.9509C28.6228 24.3503 28.7079 24.7784 28.7078 25.2107C28.7077 25.643 28.6223 26.071 28.4565 26.4703C28.2907 26.8696 28.0477 27.2324 27.7414 27.538C27.4352 27.8436 27.0716 28.086 26.6716 28.2513C26.2715 28.4166 25.8427 28.5016 25.4098 28.5015C24.9768 28.5014 24.5481 28.4161 24.1481 28.2505C23.7481 28.085 23.3847 27.8424 23.0786 27.5367L17.9323 22.3932L17.8723 22.3497L16.0824 20.5518C15.4652 19.9347 15.1185 19.0983 15.1185 18.2262C15.1185 17.3541 15.4652 16.5177 16.0824 15.9006C16.4747 15.4831 16.693 14.9322 16.693 14.3597C16.693 13.7873 16.4747 13.2363 16.0824 12.8189C15.8797 12.6145 15.6385 12.4523 15.3727 12.3415C15.1068 12.2308 14.8216 12.1738 14.5336 12.1738C14.2455 12.1738 13.9604 12.2308 13.6945 12.3415C13.4287 12.4523 13.1874 12.6145 12.9848 12.8189C12.3452 13.4524 11.8239 14.1948 11.4455 15.0112C11.391 15.1281 11.3474 15.2424 11.2984 15.3566C11.2493 15.4708 11.2112 15.5932 11.1649 15.7075C11.1186 15.8217 11.0831 15.9441 11.0505 16.0584L10.9633 16.382C10.9088 16.6023 10.8652 16.8227 10.8243 17.0457C10.7862 17.3177 10.7589 17.5897 10.748 17.8617V18.2779L10.7889 18.6097C10.7889 18.7294 10.8216 18.8572 10.8216 18.9986V19.1863L10.8788 19.5644L10.9115 19.7385L10.9769 20.0567V20.1274C11.315 21.4752 12.0138 22.7059 12.9984 23.6879L19.9974 30.6565C21.4393 32.0966 23.3951 32.9059 25.4347 32.9064C27.4742 32.9069 29.4305 32.0986 30.8731 30.6592Z" fill="#F92B4E"/>
</svg>
